<?xml version="1.0" standalone="no"?>
<!DOCTYPE svg PUBLIC "-//W3C//DTD SVG 20010904//EN"
 "http://www.w3.org/TR/2001/REC-SVG-20010904/DTD/svg10.dtd">
<svg version="1.0" xmlns="http://www.w3.org/2000/svg"
 width="200.000000pt" height="200.000000pt" viewBox="0 0 200.000000 200.000000"
 preserveAspectRatio="xMidYMid meet">
<metadata>
Created by potrace 1.14, written by Peter Selinger 2001-2017
</metadata>
<g transform="translate(0.000000,200.000000) scale(0.100000,-0.100000)"
fill="#000000" stroke="none">
<path d="M850 1005 l0 -595 150 0 150 0 0 595 0 595 -150 0 -150 0 0 -595z"/>
<path d="M1190 1300 l0 -300 150 0 150 0 0 300 0 300 -150 0 -150 0 0 -300z"/>
<path d="M510 705 l0 -295 150 0 150 0 0 295 0 295 -150 0 -150 0 0 -295z"/>
</g>
</svg>
